export const WellHead = () => {
  
}

<svg width="278" height="159" viewBox="0 0 278 159" fill="none" xmlns="http://www.w3.org/2000/svg">
<g filter="url(#filter0_d_290_121)">
<path d="M74 0H206L210 9H70L74 0Z" fill="#FFD600"/>
<path d="M70.2308 8.85L74.0975 0.15H205.903L209.769 8.85H70.2308Z" stroke="black" stroke-width="0.3"/>
</g>
<g filter="url(#filter1_d_290_121)">
<path d="M69.5 10H120V33.5H32V21H69.5V10Z" fill="#FFD600"/>
<path d="M69.65 21V10.15H119.85V33.35H32.15V21.15H69.5H69.65V21Z" stroke="black" stroke-width="0.3"/>
</g>
<g filter="url(#filter2_d_290_121)">
<path d="M161 10H210.5V21.5H246V30H161V10Z" fill="#FFD600"/>
<path d="M210.5 21.65H245.85V29.85H161.15V10.15H210.35V21.5V21.65H210.5Z" stroke="black" stroke-width="0.3"/>
</g>
<g filter="url(#filter3_d_290_121)">
<path d="M161 105V98H169V114.5L159.5 121H146V114L161 105Z" fill="#FFD600"/>
<path d="M161.077 105.129L161.15 105.085V105V98.15H168.85V114.421L159.454 120.85H146.15V114.085L161.077 105.129Z" stroke="black" stroke-width="0.3"/>
</g>
<g filter="url(#filter4_d_290_121)">
<path d="M120 98V103.5H109V118H105V98H120Z" fill="#FFD600"/>
<path d="M108.85 103.5V117.85H105.15V98.15H119.85V103.35H109H108.85V103.5Z" stroke="black" stroke-width="0.3"/>
</g>
<g filter="url(#filter5_d_290_121)">
<path d="M128 105V97H147V101L131 111V121H117.5L110 115V105H128Z" fill="#FFD600"/>
<path d="M128 105.15H128.15V105V97.15H146.85V100.917L130.92 110.873L130.85 110.917V111V120.85H117.553L110.15 114.928V105.15H128Z" stroke="black" stroke-width="0.3"/>
</g>
<g filter="url(#filter6_d_290_121)">
<path d="M4 140L46 129.5L87 150H4V140Z" fill="#FFD600"/>
<path d="M4.15 149.85V140.117L45.9825 129.659L86.3646 149.85H4.15Z" stroke="black" stroke-width="0.3"/>
</g>
<g filter="url(#filter7_d_290_121)">
<path d="M47.5 120H86.5V106H90.5V150.5L47.5 128.5V120Z" fill="#FFD600"/>
<path d="M47.65 128.408V120.15H86.5H86.65V120V106.15H90.35V150.255L47.65 128.408Z" stroke="black" stroke-width="0.3"/>
</g>
<g filter="url(#filter8_d_290_121)">
<path d="M231 129.5L274 139V151L191 150.5L231 129.5Z" fill="#FFD600"/>
<path d="M191.602 150.354L231.021 129.658L273.85 139.12V150.849L191.602 150.354Z" stroke="black" stroke-width="0.3"/>
</g>
<g filter="url(#filter9_d_290_121)">
<path d="M187.5 106H193V119H230V128L187.5 150.5V106Z" fill="#FFD600"/>
<path d="M229.85 127.91L187.65 150.251V106.15H192.85V119V119.15H193H229.85V127.91Z" stroke="black" stroke-width="0.3"/>
</g>
<g filter="url(#filter10_d_290_121)">
<path d="M32 98H86.5V81.5H91V98H98V118H92V105H85V118H32V98Z" fill="#FFD600"/>
<path d="M84.85 105V117.85H32.15V98.15H86.5H86.65V98V81.65H90.85V98V98.15H91H97.85V117.85H92.15V105V104.85H92H85H84.85V105Z" stroke="black" stroke-width="0.3"/>
</g>
<g filter="url(#filter11_d_290_121)">
<rect x="128" y="10" width="19" height="32" fill="#FFD600"/>
<rect x="128.15" y="10.15" width="18.7" height="31.7" stroke="black" stroke-width="0.3"/>
</g>
<g filter="url(#filter12_d_290_121)">
<rect x="128" y="49" width="19" height="47" fill="#FFD600"/>
<rect x="128.15" y="49.15" width="18.7" height="46.7" stroke="black" stroke-width="0.3"/>
</g>
<g filter="url(#filter13_d_290_121)">
<path d="M170 98H187.5V81.5H193V98H247V118H194.5V105H186V118H170V98Z" fill="#FFD600"/>
<path d="M185.85 105V117.85H170.15V98.15H187.5H187.65V98V81.65H192.85V98V98.15H193H246.85V117.85H194.65V105V104.85H194.5H186H185.85V105Z" stroke="black" stroke-width="0.3"/>
</g>
<g filter="url(#filter14_d_290_121)">
<path d="M32 42H120V96H92.5V80.5H85V96H32V72.5L68 64.5V52H32V42Z" fill="#FFD600"/>
<path d="M68 51.85H32.15V42.15H119.85V95.85H92.65V80.5V80.35H92.5H85H84.85V80.5V95.85H32.15V72.6203L68.0325 64.6464L68.15 64.6203V64.5V52V51.85H68Z" stroke="black" stroke-width="0.3"/>
</g>
<g filter="url(#filter15_d_290_121)">
<path d="M161 42H247V53H210.5V65.5L247 72.5V96H194.5V80H186V96H161V42Z" fill="#FFD600"/>
<path d="M246.85 72.624V95.85H194.65V80V79.85H194.5H186H185.85V80V95.85H161.15V42.15H246.85V52.85H210.5H210.35V53V65.5V65.624L210.472 65.6473L246.85 72.624Z" stroke="black" stroke-width="0.3"/>
</g>
<defs>
<filter id="filter0_d_290_121" x="66" y="0" width="148" height="17" filterUnits="userSpaceOnUse" color-interpolation-filters="sRGB">
<feFlood flood-opacity="0" result="BackgroundImageFix"/>
<feColorMatrix in="SourceAlpha" type="matrix" values="0 0 0 0 0 0 0 0 0 0 0 0 0 0 0 0 0 0 127 0" result="hardAlpha"/>
<feOffset dy="4"/>
<feGaussianBlur stdDeviation="2"/>
<feComposite in2="hardAlpha" operator="out"/>
<feColorMatrix type="matrix" values="0 0 0 0 0 0 0 0 0 0 0 0 0 0 0 0 0 0 0.25 0"/>
<feBlend mode="normal" in2="BackgroundImageFix" result="effect1_dropShadow_290_121"/>
<feBlend mode="normal" in="SourceGraphic" in2="effect1_dropShadow_290_121" result="shape"/>
</filter>
<filter id="filter1_d_290_121" x="28" y="10" width="96" height="31.5" filterUnits="userSpaceOnUse" color-interpolation-filters="sRGB">
<feFlood flood-opacity="0" result="BackgroundImageFix"/>
<feColorMatrix in="SourceAlpha" type="matrix" values="0 0 0 0 0 0 0 0 0 0 0 0 0 0 0 0 0 0 127 0" result="hardAlpha"/>
<feOffset dy="4"/>
<feGaussianBlur stdDeviation="2"/>
<feComposite in2="hardAlpha" operator="out"/>
<feColorMatrix type="matrix" values="0 0 0 0 0 0 0 0 0 0 0 0 0 0 0 0 0 0 0.25 0"/>
<feBlend mode="normal" in2="BackgroundImageFix" result="effect1_dropShadow_290_121"/>
<feBlend mode="normal" in="SourceGraphic" in2="effect1_dropShadow_290_121" result="shape"/>
</filter>
<filter id="filter2_d_290_121" x="157" y="10" width="93" height="28" filterUnits="userSpaceOnUse" color-interpolation-filters="sRGB">
<feFlood flood-opacity="0" result="BackgroundImageFix"/>
<feColorMatrix in="SourceAlpha" type="matrix" values="0 0 0 0 0 0 0 0 0 0 0 0 0 0 0 0 0 0 127 0" result="hardAlpha"/>
<feOffset dy="4"/>
<feGaussianBlur stdDeviation="2"/>
<feComposite in2="hardAlpha" operator="out"/>
<feColorMatrix type="matrix" values="0 0 0 0 0 0 0 0 0 0 0 0 0 0 0 0 0 0 0.25 0"/>
<feBlend mode="normal" in2="BackgroundImageFix" result="effect1_dropShadow_290_121"/>
<feBlend mode="normal" in="SourceGraphic" in2="effect1_dropShadow_290_121" result="shape"/>
</filter>
<filter id="filter3_d_290_121" x="142" y="98" width="31" height="31" filterUnits="userSpaceOnUse" color-interpolation-filters="sRGB">
<feFlood flood-opacity="0" result="BackgroundImageFix"/>
<feColorMatrix in="SourceAlpha" type="matrix" values="0 0 0 0 0 0 0 0 0 0 0 0 0 0 0 0 0 0 127 0" result="hardAlpha"/>
<feOffset dy="4"/>
<feGaussianBlur stdDeviation="2"/>
<feComposite in2="hardAlpha" operator="out"/>
<feColorMatrix type="matrix" values="0 0 0 0 0 0 0 0 0 0 0 0 0 0 0 0 0 0 0.25 0"/>
<feBlend mode="normal" in2="BackgroundImageFix" result="effect1_dropShadow_290_121"/>
<feBlend mode="normal" in="SourceGraphic" in2="effect1_dropShadow_290_121" result="shape"/>
</filter>
<filter id="filter4_d_290_121" x="101" y="98" width="23" height="28" filterUnits="userSpaceOnUse" color-interpolation-filters="sRGB">
<feFlood flood-opacity="0" result="BackgroundImageFix"/>
<feColorMatrix in="SourceAlpha" type="matrix" values="0 0 0 0 0 0 0 0 0 0 0 0 0 0 0 0 0 0 127 0" result="hardAlpha"/>
<feOffset dy="4"/>
<feGaussianBlur stdDeviation="2"/>
<feComposite in2="hardAlpha" operator="out"/>
<feColorMatrix type="matrix" values="0 0 0 0 0 0 0 0 0 0 0 0 0 0 0 0 0 0 0.25 0"/>
<feBlend mode="normal" in2="BackgroundImageFix" result="effect1_dropShadow_290_121"/>
<feBlend mode="normal" in="SourceGraphic" in2="effect1_dropShadow_290_121" result="shape"/>
</filter>
<filter id="filter5_d_290_121" x="106" y="97" width="45" height="32" filterUnits="userSpaceOnUse" color-interpolation-filters="sRGB">
<feFlood flood-opacity="0" result="BackgroundImageFix"/>
<feColorMatrix in="SourceAlpha" type="matrix" values="0 0 0 0 0 0 0 0 0 0 0 0 0 0 0 0 0 0 127 0" result="hardAlpha"/>
<feOffset dy="4"/>
<feGaussianBlur stdDeviation="2"/>
<feComposite in2="hardAlpha" operator="out"/>
<feColorMatrix type="matrix" values="0 0 0 0 0 0 0 0 0 0 0 0 0 0 0 0 0 0 0.25 0"/>
<feBlend mode="normal" in2="BackgroundImageFix" result="effect1_dropShadow_290_121"/>
<feBlend mode="normal" in="SourceGraphic" in2="effect1_dropShadow_290_121" result="shape"/>
</filter>
<filter id="filter6_d_290_121" x="0" y="129.5" width="91" height="28.5" filterUnits="userSpaceOnUse" color-interpolation-filters="sRGB">
<feFlood flood-opacity="0" result="BackgroundImageFix"/>
<feColorMatrix in="SourceAlpha" type="matrix" values="0 0 0 0 0 0 0 0 0 0 0 0 0 0 0 0 0 0 127 0" result="hardAlpha"/>
<feOffset dy="4"/>
<feGaussianBlur stdDeviation="2"/>
<feComposite in2="hardAlpha" operator="out"/>
<feColorMatrix type="matrix" values="0 0 0 0 0 0 0 0 0 0 0 0 0 0 0 0 0 0 0.25 0"/>
<feBlend mode="normal" in2="BackgroundImageFix" result="effect1_dropShadow_290_121"/>
<feBlend mode="normal" in="SourceGraphic" in2="effect1_dropShadow_290_121" result="shape"/>
</filter>
<filter id="filter7_d_290_121" x="43.5" y="106" width="51" height="52.5" filterUnits="userSpaceOnUse" color-interpolation-filters="sRGB">
<feFlood flood-opacity="0" result="BackgroundImageFix"/>
<feColorMatrix in="SourceAlpha" type="matrix" values="0 0 0 0 0 0 0 0 0 0 0 0 0 0 0 0 0 0 127 0" result="hardAlpha"/>
<feOffset dy="4"/>
<feGaussianBlur stdDeviation="2"/>
<feComposite in2="hardAlpha" operator="out"/>
<feColorMatrix type="matrix" values="0 0 0 0 0 0 0 0 0 0 0 0 0 0 0 0 0 0 0.25 0"/>
<feBlend mode="normal" in2="BackgroundImageFix" result="effect1_dropShadow_290_121"/>
<feBlend mode="normal" in="SourceGraphic" in2="effect1_dropShadow_290_121" result="shape"/>
</filter>
<filter id="filter8_d_290_121" x="187" y="129.5" width="91" height="29.5" filterUnits="userSpaceOnUse" color-interpolation-filters="sRGB">
<feFlood flood-opacity="0" result="BackgroundImageFix"/>
<feColorMatrix in="SourceAlpha" type="matrix" values="0 0 0 0 0 0 0 0 0 0 0 0 0 0 0 0 0 0 127 0" result="hardAlpha"/>
<feOffset dy="4"/>
<feGaussianBlur stdDeviation="2"/>
<feComposite in2="hardAlpha" operator="out"/>
<feColorMatrix type="matrix" values="0 0 0 0 0 0 0 0 0 0 0 0 0 0 0 0 0 0 0.25 0"/>
<feBlend mode="normal" in2="BackgroundImageFix" result="effect1_dropShadow_290_121"/>
<feBlend mode="normal" in="SourceGraphic" in2="effect1_dropShadow_290_121" result="shape"/>
</filter>
<filter id="filter9_d_290_121" x="183.5" y="106" width="50.5" height="52.5" filterUnits="userSpaceOnUse" color-interpolation-filters="sRGB">
<feFlood flood-opacity="0" result="BackgroundImageFix"/>
<feColorMatrix in="SourceAlpha" type="matrix" values="0 0 0 0 0 0 0 0 0 0 0 0 0 0 0 0 0 0 127 0" result="hardAlpha"/>
<feOffset dy="4"/>
<feGaussianBlur stdDeviation="2"/>
<feComposite in2="hardAlpha" operator="out"/>
<feColorMatrix type="matrix" values="0 0 0 0 0 0 0 0 0 0 0 0 0 0 0 0 0 0 0.25 0"/>
<feBlend mode="normal" in2="BackgroundImageFix" result="effect1_dropShadow_290_121"/>
<feBlend mode="normal" in="SourceGraphic" in2="effect1_dropShadow_290_121" result="shape"/>
</filter>
<filter id="filter10_d_290_121" x="28" y="81.5" width="74" height="44.5" filterUnits="userSpaceOnUse" color-interpolation-filters="sRGB">
<feFlood flood-opacity="0" result="BackgroundImageFix"/>
<feColorMatrix in="SourceAlpha" type="matrix" values="0 0 0 0 0 0 0 0 0 0 0 0 0 0 0 0 0 0 127 0" result="hardAlpha"/>
<feOffset dy="4"/>
<feGaussianBlur stdDeviation="2"/>
<feComposite in2="hardAlpha" operator="out"/>
<feColorMatrix type="matrix" values="0 0 0 0 0 0 0 0 0 0 0 0 0 0 0 0 0 0 0.25 0"/>
<feBlend mode="normal" in2="BackgroundImageFix" result="effect1_dropShadow_290_121"/>
<feBlend mode="normal" in="SourceGraphic" in2="effect1_dropShadow_290_121" result="shape"/>
</filter>
<filter id="filter11_d_290_121" x="124" y="10" width="27" height="40" filterUnits="userSpaceOnUse" color-interpolation-filters="sRGB">
<feFlood flood-opacity="0" result="BackgroundImageFix"/>
<feColorMatrix in="SourceAlpha" type="matrix" values="0 0 0 0 0 0 0 0 0 0 0 0 0 0 0 0 0 0 127 0" result="hardAlpha"/>
<feOffset dy="4"/>
<feGaussianBlur stdDeviation="2"/>
<feComposite in2="hardAlpha" operator="out"/>
<feColorMatrix type="matrix" values="0 0 0 0 0 0 0 0 0 0 0 0 0 0 0 0 0 0 0.25 0"/>
<feBlend mode="normal" in2="BackgroundImageFix" result="effect1_dropShadow_290_121"/>
<feBlend mode="normal" in="SourceGraphic" in2="effect1_dropShadow_290_121" result="shape"/>
</filter>
<filter id="filter12_d_290_121" x="124" y="49" width="27" height="55" filterUnits="userSpaceOnUse" color-interpolation-filters="sRGB">
<feFlood flood-opacity="0" result="BackgroundImageFix"/>
<feColorMatrix in="SourceAlpha" type="matrix" values="0 0 0 0 0 0 0 0 0 0 0 0 0 0 0 0 0 0 127 0" result="hardAlpha"/>
<feOffset dy="4"/>
<feGaussianBlur stdDeviation="2"/>
<feComposite in2="hardAlpha" operator="out"/>
<feColorMatrix type="matrix" values="0 0 0 0 0 0 0 0 0 0 0 0 0 0 0 0 0 0 0.25 0"/>
<feBlend mode="normal" in2="BackgroundImageFix" result="effect1_dropShadow_290_121"/>
<feBlend mode="normal" in="SourceGraphic" in2="effect1_dropShadow_290_121" result="shape"/>
</filter>
<filter id="filter13_d_290_121" x="166" y="81.5" width="85" height="44.5" filterUnits="userSpaceOnUse" color-interpolation-filters="sRGB">
<feFlood flood-opacity="0" result="BackgroundImageFix"/>
<feColorMatrix in="SourceAlpha" type="matrix" values="0 0 0 0 0 0 0 0 0 0 0 0 0 0 0 0 0 0 127 0" result="hardAlpha"/>
<feOffset dy="4"/>
<feGaussianBlur stdDeviation="2"/>
<feComposite in2="hardAlpha" operator="out"/>
<feColorMatrix type="matrix" values="0 0 0 0 0 0 0 0 0 0 0 0 0 0 0 0 0 0 0.25 0"/>
<feBlend mode="normal" in2="BackgroundImageFix" result="effect1_dropShadow_290_121"/>
<feBlend mode="normal" in="SourceGraphic" in2="effect1_dropShadow_290_121" result="shape"/>
</filter>
<filter id="filter14_d_290_121" x="28" y="42" width="96" height="62" filterUnits="userSpaceOnUse" color-interpolation-filters="sRGB">
<feFlood flood-opacity="0" result="BackgroundImageFix"/>
<feColorMatrix in="SourceAlpha" type="matrix" values="0 0 0 0 0 0 0 0 0 0 0 0 0 0 0 0 0 0 127 0" result="hardAlpha"/>
<feOffset dy="4"/>
<feGaussianBlur stdDeviation="2"/>
<feComposite in2="hardAlpha" operator="out"/>
<feColorMatrix type="matrix" values="0 0 0 0 0 0 0 0 0 0 0 0 0 0 0 0 0 0 0.25 0"/>
<feBlend mode="normal" in2="BackgroundImageFix" result="effect1_dropShadow_290_121"/>
<feBlend mode="normal" in="SourceGraphic" in2="effect1_dropShadow_290_121" result="shape"/>
</filter>
<filter id="filter15_d_290_121" x="157" y="42" width="94" height="62" filterUnits="userSpaceOnUse" color-interpolation-filters="sRGB">
<feFlood flood-opacity="0" result="BackgroundImageFix"/>
<feColorMatrix in="SourceAlpha" type="matrix" values="0 0 0 0 0 0 0 0 0 0 0 0 0 0 0 0 0 0 127 0" result="hardAlpha"/>
<feOffset dy="4"/>
<feGaussianBlur stdDeviation="2"/>
<feComposite in2="hardAlpha" operator="out"/>
<feColorMatrix type="matrix" values="0 0 0 0 0 0 0 0 0 0 0 0 0 0 0 0 0 0 0.25 0"/>
<feBlend mode="normal" in2="BackgroundImageFix" result="effect1_dropShadow_290_121"/>
<feBlend mode="normal" in="SourceGraphic" in2="effect1_dropShadow_290_121" result="shape"/>
</filter>
</defs>
</svg>
